<svg xmlns="http://www.w3.org/2000/svg" xmlns:xlink="http://www.w3.org/1999/xlink" id="Layer_1" x="0px" y="0px" width="1024px" height="411px" viewBox="0 0 1024 411" xml:space="preserve"><rect x="131.439" y="250.916" fill="#B9CDDC" width="767" height="1.588"></rect><rect x="409.692" y="205.828" fill="#545959" width="228.471" height="75.365"></rect><g>	<defs>		<rect id="SVGID_1_" y="-53.361" width="1024" height="464.361"></rect>	</defs>	<clipPath id="SVGID_2_">		<use xlink:href="#SVGID_1_" overflow="visible"></use>	</clipPath>	<path clip-path="url(#SVGID_2_)" fill="#B9CDDC" d="M370.749,140.505c0,75.074,61.796,135.928,138.022,135.928  c76.228,0,138.031-60.854,138.031-135.928c0-75.065-61.803-135.915-138.031-135.915C432.545,4.59,370.749,65.44,370.749,140.505"></path>	<rect x="535.69" y="188.667" clip-path="url(#SVGID_2_)" fill="#545959" width="70.976" height="59.442"></rect>	<path clip-path="url(#SVGID_2_)" fill="#B9CDDC" d="M505.605,284.1c33.208,2.572,67.11,6.137,100.429,5.641  c10.747-0.162,21.432-0.379,32.067-0.254c-21.072-45.072-66.241-66.503-118.72-66.503c-46.345,0-86.996,23.538-110.375,59.052  C441.229,281.578,473.444,281.613,505.605,284.1"></path>	<path clip-path="url(#SVGID_2_)" fill="#545959" d="M384.495,155.058c9.514,77.732,66.031,104.182,138.853,104.182  c80.715,0,115.522-35.983,115.522-104.715c0-65.262-41.513-139.355-128.772-139.355C437.288,15.17,375.367,80.5,384.495,155.058"></path>	<polygon clip-path="url(#SVGID_2_)" fill="#B9CDDC" points="607.149,197.498 508.115,296.551 410.408,198.862 508.783,104.77  "></polygon>	<polygon clip-path="url(#SVGID_2_)" fill="#B9CDDC" points="594.458,176.935 508.187,263.207 423.102,178.125 508.783,96.168  "></polygon>	<rect x="498.173" y="92.747" clip-path="url(#SVGID_2_)" fill="#B9CDDC" width="21.221" height="20.099"></rect>	<polygon clip-path="url(#SVGID_2_)" fill="#B9CDDC" points="604.125,202.557 508.151,298.547 413.481,203.87 508.797,112.691  "></polygon>	<path clip-path="url(#SVGID_2_)" fill="#545959" d="M508.151,299.662l-95.81-95.804l96.456-92.258l96.456,90.943L508.151,299.662z   M414.609,203.883l93.542,93.535l94.833-94.849L508.8,113.781L414.609,203.883z"></path>	<rect x="419.097" y="201.572" clip-path="url(#SVGID_2_)" fill="#B9CDDC" width="179.414" height="79.727"></rect>	<rect x="479.021" y="140.741" clip-path="url(#SVGID_2_)" fill="#545959" width="60.375" height="1.588"></rect>	<polygon clip-path="url(#SVGID_2_)" fill="#B9CDDC" points="476.928,140.877 508.783,109.146 540.637,140.877  "></polygon>	<path clip-path="url(#SVGID_2_)" fill="#545959" d="M445.177,221.007h-15.784v-21.523h15.784V221.007z M430.662,219.737h13.245  v-18.991h-13.245V219.737z"></path>	<rect x="430.024" y="212.981" clip-path="url(#SVGID_2_)" fill="#545959" width="14.515" height="1.27"></rect>	<rect x="430.024" y="206.236" clip-path="url(#SVGID_2_)" fill="#545959" width="14.515" height="1.266"></rect>	<rect x="439.073" y="200.116" clip-path="url(#SVGID_2_)" fill="#545959" width="1.27" height="20.254"></rect>	<rect x="434.231" y="200.116" clip-path="url(#SVGID_2_)" fill="#545959" width="1.27" height="20.254"></rect>	<path clip-path="url(#SVGID_2_)" fill="#545959" d="M462.989,221.007h-15.786v-21.523h15.786V221.007z M448.475,219.737h13.243  v-18.991h-13.243V219.737z"></path>	<rect x="447.837" y="212.981" clip-path="url(#SVGID_2_)" fill="#545959" width="14.515" height="1.27"></rect>	<rect x="447.837" y="206.236" clip-path="url(#SVGID_2_)" fill="#545959" width="14.515" height="1.266"></rect>	<rect x="456.872" y="200.116" clip-path="url(#SVGID_2_)" fill="#545959" width="1.27" height="20.254"></rect>	<rect x="452.044" y="200.116" clip-path="url(#SVGID_2_)" fill="#545959" width="1.27" height="20.254"></rect>	<path clip-path="url(#SVGID_2_)" fill="#545959" d="M589.312,221.007h-15.778v-21.523h15.778V221.007z M574.799,219.737h13.25  v-18.991h-13.25V219.737z"></path>	<rect x="574.165" y="212.981" clip-path="url(#SVGID_2_)" fill="#545959" width="14.515" height="1.27"></rect>	<rect x="574.165" y="206.236" clip-path="url(#SVGID_2_)" fill="#545959" width="14.515" height="1.266"></rect>	<rect x="583.214" y="200.116" clip-path="url(#SVGID_2_)" fill="#545959" width="1.277" height="20.254"></rect>	<rect x="578.369" y="200.116" clip-path="url(#SVGID_2_)" fill="#545959" width="1.275" height="20.254"></rect>	<path clip-path="url(#SVGID_2_)" fill="#545959" d="M571.179,221.007H555.4v-21.523h15.778V221.007z M556.677,219.737h13.237  v-18.991h-13.237V219.737z"></path>	<rect x="556.031" y="212.981" clip-path="url(#SVGID_2_)" fill="#545959" width="14.515" height="1.27"></rect>	<rect x="556.031" y="206.236" clip-path="url(#SVGID_2_)" fill="#545959" width="14.515" height="1.266"></rect>	<rect x="565.08" y="200.116" clip-path="url(#SVGID_2_)" fill="#545959" width="1.276" height="20.254"></rect>	<rect x="560.258" y="200.116" clip-path="url(#SVGID_2_)" fill="#545959" width="1.277" height="20.254"></rect>	<path clip-path="url(#SVGID_2_)" fill="#545959" d="M485.121,221.007H469.36v-21.523h15.761V221.007z M470.63,219.737h13.22  v-18.991h-13.22V219.737z"></path>	<rect x="469.998" y="212.981" clip-path="url(#SVGID_2_)" fill="#545959" width="14.49" height="1.27"></rect>	<rect x="469.998" y="206.236" clip-path="url(#SVGID_2_)" fill="#545959" width="14.49" height="1.266"></rect>	<rect x="479.029" y="200.116" clip-path="url(#SVGID_2_)" fill="#545959" width="1.27" height="20.254"></rect>	<rect x="474.207" y="200.116" clip-path="url(#SVGID_2_)" fill="#545959" width="1.271" height="20.254"></rect>	<path clip-path="url(#SVGID_2_)" fill="#545959" d="M499.643,221.007H483.85v-21.523h15.793V221.007z M485.121,219.737h13.25  v-18.991h-13.25V219.737z"></path>	<rect x="484.488" y="212.981" clip-path="url(#SVGID_2_)" fill="#545959" width="14.516" height="1.27"></rect>	<rect x="484.488" y="206.236" clip-path="url(#SVGID_2_)" fill="#545959" width="14.516" height="1.266"></rect>	<rect x="493.542" y="200.116" clip-path="url(#SVGID_2_)" fill="#545959" width="1.271" height="20.254"></rect>	<rect x="488.722" y="200.116" clip-path="url(#SVGID_2_)" fill="#545959" width="1.27" height="20.254"></rect>	<path clip-path="url(#SVGID_2_)" fill="#545959" d="M514.157,221.007h-15.786v-21.523h15.786V221.007z M499.643,219.737h13.243  v-18.991h-13.243V219.737z"></path>	<rect x="499.004" y="212.981" clip-path="url(#SVGID_2_)" fill="#545959" width="14.515" height="1.27"></rect>	<rect x="499.004" y="206.236" clip-path="url(#SVGID_2_)" fill="#545959" width="14.515" height="1.266"></rect>	<rect x="508.064" y="200.116" clip-path="url(#SVGID_2_)" fill="#545959" width="1.27" height="20.254"></rect>	<rect x="503.218" y="200.116" clip-path="url(#SVGID_2_)" fill="#545959" width="1.27" height="20.254"></rect>	<rect x="525.07" y="200.116" clip-path="url(#SVGID_2_)" fill="#545959" width="19.036" height="45.737"></rect>	<path clip-path="url(#SVGID_2_)" fill="#545959" d="M485.121,182.928H469.36v-21.524h15.761V182.928z M470.63,181.658h13.22  v-18.989h-13.22V181.658z"></path>	<rect x="469.998" y="174.902" clip-path="url(#SVGID_2_)" fill="#545959" width="14.49" height="1.271"></rect>	<rect x="469.998" y="168.159" clip-path="url(#SVGID_2_)" fill="#545959" width="14.49" height="1.265"></rect>	<rect x="479.029" y="162.036" clip-path="url(#SVGID_2_)" fill="#545959" width="1.27" height="20.254"></rect>	<rect x="474.207" y="162.036" clip-path="url(#SVGID_2_)" fill="#545959" width="1.271" height="20.254"></rect>	<path clip-path="url(#SVGID_2_)" fill="#545959" d="M500.714,182.928h-15.791v-21.524h15.791V182.928z M486.193,181.658h13.251  v-18.989h-13.251V181.658z"></path>	<rect x="485.555" y="174.902" clip-path="url(#SVGID_2_)" fill="#545959" width="14.527" height="1.271"></rect>	<rect x="485.555" y="168.159" clip-path="url(#SVGID_2_)" fill="#545959" width="14.527" height="1.265"></rect>	<rect x="494.617" y="162.036" clip-path="url(#SVGID_2_)" fill="#545959" width="1.27" height="20.254"></rect>	<rect x="489.793" y="162.036" clip-path="url(#SVGID_2_)" fill="#545959" width="1.27" height="20.254"></rect>	<path clip-path="url(#SVGID_2_)" fill="#545959" d="M533.621,182.928h-15.758v-21.524h15.758V182.928z M519.133,181.658h13.22  v-18.989h-13.22V181.658z"></path>	<rect x="518.502" y="174.902" clip-path="url(#SVGID_2_)" fill="#545959" width="14.486" height="1.271"></rect>	<rect x="518.502" y="168.159" clip-path="url(#SVGID_2_)" fill="#545959" width="14.486" height="1.265"></rect>	<rect x="527.532" y="162.036" clip-path="url(#SVGID_2_)" fill="#545959" width="1.27" height="20.254"></rect>	<rect x="522.709" y="162.036" clip-path="url(#SVGID_2_)" fill="#545959" width="1.271" height="20.254"></rect>	<path clip-path="url(#SVGID_2_)" fill="#545959" d="M549.351,182.928h-15.793v-21.524h15.793V182.928z M534.836,181.658h13.25  v-18.989h-13.25V181.658z"></path>	<rect x="534.192" y="174.902" clip-path="url(#SVGID_2_)" fill="#545959" width="14.526" height="1.271"></rect>	<rect x="534.192" y="168.159" clip-path="url(#SVGID_2_)" fill="#545959" width="14.526" height="1.265"></rect>	<rect x="543.251" y="162.036" clip-path="url(#SVGID_2_)" fill="#545959" width="1.277" height="20.254"></rect>	<rect x="538.431" y="162.036" clip-path="url(#SVGID_2_)" fill="#545959" width="1.276" height="20.254"></rect>	<path clip-path="url(#SVGID_2_)" fill="#545959" d="M571.551,304.402c23.736-1.363,47.486-1.977,71.285-2.057  c3.706-0.014,7.065,0.502,10.09,1.395c1.797-0.137,3.595-0.311,5.404-0.447c-16.561-45.143-63.129-67.206-119.564-64.679  c-29.015,1.302-53.435,23.007-82.612,16.134c-32.395-7.631-45.392-19.177-60.682-35.074c-9.867-10.25-19.733,42.74-23.786,81.797  C438.317,302.959,504.936,305.146,571.551,304.402"></path>	<path clip-path="url(#SVGID_2_)" fill="#FFFFFF" d="M204.457,315.752c0,20.562-15.662,35.908-36.746,35.908  c-23.595,0-37.164-16.598-37.164-35.182c0-21.295,15.45-37.059,37.372-37.059C192.034,279.42,204.457,296.748,204.457,315.752   M144.742,313.451c0,14.406,6.161,34.031,24.01,34.031c11.903,0,21.505-8.871,21.505-29.854c0-15.764-7.098-34.031-23.696-34.031  C156.121,283.598,144.742,291.219,144.742,313.451"></path>	<path clip-path="url(#SVGID_2_)" fill="#FFFFFF" d="M221.24,296.748c0-10.02-0.105-11.273-5.011-11.793l-2.714-0.312  c-0.731-0.732-0.731-2.402,0.106-2.926c6.575-0.625,15.447-0.939,24.009-0.939c8.14,0,15.241,1.045,19.833,3.551  c5.323,2.818,9.188,7.723,9.188,15.24c0,9.604-7.413,14.406-12.529,16.496c-0.626,0.312-0.415,1.146,0,1.771  c8.351,14.094,13.573,22.966,18.479,27.037c2.922,2.508,5.95,3.133,7.201,3.24c0.523,0.414,0.523,1.563,0.212,2.084  c-1.253,0.312-3.236,0.627-6.893,0.627c-10.021,0-15.448-4.068-21.815-13.777c-2.821-4.385-5.743-10.127-8.25-14.199  c-1.877-3.131-3.023-3.549-6.471-3.549c-3.132,0-3.235,0.105-3.235,2.296v13.362c0,11.066,0.94,11.379,5.844,12.006l2.297,0.312  c0.731,0.73,0.627,2.609-0.207,3.026c-4.593-0.207-9.29-0.312-13.886-0.312c-4.593,0-9.291,0.104-14.091,0.312  c-0.836-0.417-1.149-2.296-0.21-3.026l2.296-0.312c4.909-0.627,5.847-0.939,5.847-12.006V296.748z M233.35,311.781  c0,3.34,0,3.551,5.011,3.551c10.23,0,14.928-5.01,14.928-14.93c0-8.246-5.324-15.447-14.406-15.447  c-5.43,0-5.533,0.312-5.533,5.113V311.781z"></path>	<path clip-path="url(#SVGID_2_)" fill="#FFFFFF" d="M317.681,324.1c-4.283,9.5-9.082,21.717-10.858,27.039  c-0.207,0.314-1.043,0.521-1.772,0.521c-0.731,0-1.463-0.207-1.986-0.521c-1.252-4.176-2.923-9.293-4.801-13.678l-18.271-43.947  c-2.921-6.994-3.861-8.457-8.035-9.289l-2.507-0.525c-0.731-0.729-0.731-2.607,0.313-2.922c4.072,0.211,8.563,0.314,12.632,0.314  c4.698,0,8.249-0.104,13.78-0.314c0.938,0.627,1.045,2.297,0.105,3.027l-2.61,0.627c-2.298,0.523-3.133,1.043-3.133,1.881  c0,0.938,0.835,3.234,5.116,13.883l7.516,18.58c1.881,4.697,4.698,10.859,5.742,13.26c5.636-13.154,11.899-27.561,17.435-41.756  c1.669-4.178,1.356-5.012-1.777-5.743l-3.028-0.731c-0.731-0.834-0.625-2.504,0.212-3.027c4.28,0.211,7.827,0.314,11.168,0.314  c3.758,0,7.201-0.104,10.127-0.314c0.834,0.523,0.732,2.193,0.207,3.027l-2.608,0.523c-2.403,0.521-4.699,1.254-6.474,4.279  c-2.923,5.012-5.844,12.006-10.649,22.547L317.681,324.1z"></path>	<path clip-path="url(#SVGID_2_)" fill="#FFFFFF" d="M358.896,296.123c0-11.066-0.938-11.48-5.848-12.109l-1.669-0.209  c-0.732-0.73-0.625-2.609,0.211-3.027c3.967,0.211,8.872,0.314,13.464,0.314h19.942c6.68,0,12.734-0.104,14.093-0.314  c0.414,1.775,1.041,10.021,1.666,14.512c-0.415,0.834-2.503,1.045-3.339,0.42c-1.668-6.057-3.237-8.562-6.576-9.502  c-2.402-0.625-5.533-0.939-8.352-0.939h-6.994c-4.486,0-4.486,0.207-4.486,6.158v17.645c0,2.711,0.101,2.816,2.503,2.816h5.01  c9.083,0,10.647-0.105,11.587-4.592l0.732-3.553c0.836-0.729,2.82-0.729,3.339,0.105c-0.104,2.82-0.311,6.576-0.311,10.439  c0,3.969,0.207,7.621,0.311,10.961c-0.519,0.732-2.503,0.732-3.339,0.107l-0.732-4.178c-0.728-4.385-2.504-4.594-11.587-4.594  h-5.01c-2.402,0-2.503,0.209-2.503,2.82v13.258c0,5.324,0.206,9.082,1.771,10.854c1.252,1.465,3.028,2.195,11.799,2.301  c13.256,0.102,15.552-2.82,19.205-11.277c0.942-0.73,2.715-0.418,3.342,0.627c-0.627,4.385-2.923,12.316-4.383,15.137  c-4.595-0.207-13.574-0.312-25.785-0.312h-11.903c-4.592,0-10.961,0.105-15.658,0.312c-0.833-0.418-0.938-2.297-0.208-3.027  l3.86-0.418c4.91-0.521,5.848-0.834,5.848-11.9V296.123z"></path>	<path clip-path="url(#SVGID_2_)" fill="#FFFFFF" d="M431.535,332.768c0,5.219,0.208,8.977,1.773,10.748  c1.252,1.465,2.925,2.301,11.274,2.301c11.59,0,13.26-0.525,18.058-11.277c1.045-0.521,2.717-0.207,3.241,0.627  c-0.837,4.385-3.133,12.316-4.387,15.137c-4.384-0.207-13.361-0.312-25.053-0.312h-10.855c-5.324,0-10.542,0.105-14.928,0.312  c-0.833-0.418-1.146-2.504-0.206-3.027l3.129-0.52c4.91-0.838,5.848-0.939,5.848-11.799v-38.834  c0-10.855-0.938-11.168-5.848-11.898l-2.923-0.42c-0.729-0.52-0.729-2.609,0.209-3.027c5.22,0.211,9.92,0.314,14.719,0.314  c4.593,0,9.29-0.104,13.883-0.314c0.938,0.418,1.045,2.508,0.207,3.027l-2.295,0.42c-4.906,0.832-5.846,1.043-5.846,11.898V332.768  z"></path>	<path clip-path="url(#SVGID_2_)" fill="#FFFFFF" d="M482.988,289.861c0-4.387-0.105-4.594-2.82-4.594h-5.844  c-9.607,0-12.423,1.146-16.288,9.604c-0.731,0.627-2.921,0.312-3.339-0.73c1.774-5.637,3.339-12.111,4.071-15.764  c0.212-0.314,0.627-0.416,1.15-0.416c0.415,0,0.833,0.102,1.045,0.416c0.52,2.611,1.983,2.715,9.078,2.715h42.593  c5.117,0,6.682-0.314,7.934-2.715c0.418-0.209,0.836-0.416,1.251-0.416c0.63,0,1.15,0.207,1.358,0.52  c-1.045,4.279-1.877,13.258-1.565,16.598c-0.521,0.838-2.296,1.045-3.234,0.314c-1.357-8.143-3.341-10.125-14.513-10.125h-5.949  c-2.715,0-2.82,0.207-2.82,4.594v45.096c0,11.066,0.942,11.379,5.847,11.9l3.758,0.418c0.728,0.73,0.627,2.609-0.209,3.027  c-6.057-0.207-10.754-0.312-15.347-0.312c-4.591,0-9.497,0.105-16.178,0.312c-0.837-0.418-0.942-2.504-0.211-3.027l4.384-0.52  c4.907-0.627,5.848-0.732,5.848-11.799V289.861z"></path>	<path clip-path="url(#SVGID_2_)" fill="#FFFFFF" d="M536.732,296.123c0-11.066-0.943-11.48-5.851-12.109l-1.671-0.209  c-0.73-0.73-0.626-2.609,0.211-3.027c3.963,0.211,8.872,0.314,13.465,0.314h19.937c6.681,0,12.744-0.104,14.095-0.314  c0.42,1.775,1.04,10.021,1.674,14.512c-0.422,0.834-2.506,1.045-3.349,0.42c-1.659-6.057-3.234-8.562-6.568-9.502  c-2.405-0.625-5.534-0.939-8.354-0.939h-6.992c-4.485,0-4.485,0.207-4.485,6.158v17.645c0,2.711,0.098,2.816,2.503,2.816h5.009  c9.086,0,10.646-0.105,11.589-4.592l0.731-3.553c0.829-0.729,2.814-0.729,3.334,0.105c-0.1,2.82-0.31,6.576-0.31,10.439  c0,3.969,0.21,7.621,0.31,10.961c-0.52,0.732-2.505,0.732-3.334,0.107l-0.731-4.178c-0.732-4.385-2.503-4.594-11.589-4.594h-5.009  c-2.405,0-2.503,0.209-2.503,2.82v13.258c0,5.324,0.204,9.082,1.772,10.854c1.252,1.465,3.023,2.195,11.794,2.301  c13.256,0.102,15.549-2.82,19.207-11.277c0.941-0.73,2.715-0.418,3.34,0.627c-0.625,4.385-2.918,12.316-4.382,15.137  c-4.599-0.207-13.573-0.312-25.782-0.312h-11.905c-4.593,0-10.962,0.105-15.658,0.312c-0.835-0.418-0.939-2.297-0.208-3.027  l3.861-0.418c4.907-0.521,5.851-0.834,5.851-11.9V296.123z"></path>	<path clip-path="url(#SVGID_2_)" fill="#FFFFFF" d="M597.259,296.748c0-10.02-0.1-11.273-5.008-11.793l-2.715-0.312  c-0.731-0.732-0.731-2.402,0.104-2.926c6.577-0.625,15.452-0.939,24.011-0.939c8.138,0,15.239,1.045,19.832,3.551  c5.323,2.818,9.19,7.723,9.19,15.24c0,9.604-7.412,14.406-12.532,16.496c-0.625,0.312-0.415,1.146,0,1.771  c8.356,14.094,13.574,22.966,18.483,27.037c2.918,2.508,5.949,3.133,7.2,3.24c0.522,0.414,0.522,1.563,0.212,2.084  c-1.253,0.312-3.236,0.627-6.893,0.627c-10.028,0-15.451-4.068-21.814-13.777c-2.827-4.385-5.746-10.127-8.256-14.199  c-1.871-3.131-3.024-3.549-6.471-3.549c-3.131,0-3.234,0.105-3.234,2.296v13.362c0,11.066,0.941,11.379,5.851,12.006l2.293,0.312  c0.729,0.73,0.625,2.609-0.212,3.026c-4.586-0.207-9.284-0.312-13.883-0.312c-4.593,0-9.289,0.104-14.093,0.312  c-0.83-0.417-1.146-2.296-0.21-3.026l2.298-0.312c4.909-0.627,5.846-0.939,5.846-12.006V296.748z M609.369,311.781  c0,3.34,0,3.551,5.014,3.551c10.232,0,14.93-5.01,14.93-14.93c0-8.246-5.331-15.447-14.409-15.447  c-5.431,0-5.534,0.312-5.534,5.113V311.781z"></path>	<path clip-path="url(#SVGID_2_)" fill="#FFFFFF" d="M709.04,316.584c-5.324,0-5.642,0.209-5.642,3.027v15.346  c0,11.066,0.942,11.273,5.852,11.9l3.13,0.418c0.724,0.73,0.626,2.609-0.211,3.027c-5.422-0.207-10.121-0.312-14.719-0.312  c-4.593,0-9.291,0.105-13.257,0.312c-0.838-0.418-0.937-2.297-0.205-3.027l1.456-0.207c4.908-0.732,5.845-1.045,5.845-12.111  v-38.834c0-11.066-0.937-11.379-5.845-12.006l-2.3-0.312c-0.731-0.52-0.619-2.609,0.211-3.027  c4.599,0.211,9.502,0.314,14.095,0.314c4.598,0,9.297-0.104,13.36-0.314c0.836,0.418,0.944,2.508,0.211,3.027l-1.771,0.312  c-4.909,0.838-5.852,0.939-5.852,12.006v12.631c0,2.926,0.317,3.133,5.642,3.133h24.43c5.317,0,5.628-0.207,5.628-3.133v-12.631  c0-11.066-0.936-11.379-5.838-12.006l-2.3-0.312c-0.732-0.52-0.626-2.609,0.205-3.027c4.81,0.211,9.5,0.314,14.093,0.314  s9.291-0.104,13.469-0.314c0.835,0.418,0.935,2.508,0.203,3.027l-1.871,0.312c-4.908,0.838-5.852,0.939-5.852,12.006v38.834  c0,11.066,0.943,11.379,5.852,12.006l2.293,0.312c0.731,0.73,0.626,2.609-0.21,3.027c-4.593-0.207-9.291-0.312-13.884-0.312  c-4.796,0-9.495,0.105-14.093,0.312c-0.831-0.418-0.938-2.297-0.205-3.027l2.3-0.312c4.902-0.627,5.838-0.939,5.838-12.006v-15.346  c0-2.818-0.311-3.027-5.628-3.027H709.04z"></path>	<path clip-path="url(#SVGID_2_)" fill="#FFFFFF" d="M841.904,315.752c0,20.562-15.661,35.908-36.746,35.908  c-23.594,0-37.167-16.598-37.167-35.182c0-21.295,15.457-37.059,37.372-37.059C829.484,279.42,841.904,296.748,841.904,315.752   M782.189,313.451c0,14.406,6.161,34.031,24.01,34.031c11.907,0,21.508-8.871,21.508-29.854c0-15.764-7.098-34.031-23.695-34.031  C793.569,283.598,782.189,291.219,782.189,313.451"></path>	<path clip-path="url(#SVGID_2_)" fill="#FFFFFF" d="M884.37,281.092c6.683,0,12.527-0.104,14.715-0.314  c0,2.297,0,10.128,0.21,15.033c-0.415,0.836-2.293,1.045-3.341,0.418c-1.04-6.055-2.715-9.082-6.682-10.127  c-2.819-0.73-5.429-0.834-8.769-0.834h-5.324c-4.381,0-4.381,0.207-4.381,6.055v18.686c0,2.611,0.099,2.818,2.503,2.818h6.161  c9.078,0,10.646-0.207,11.688-4.592l0.836-3.549c0.627-0.732,2.61-0.732,3.13,0.102c-0.1,2.715-0.309,6.58-0.309,10.441  c0,3.863,0.209,7.619,0.309,10.857c-0.52,0.834-2.503,0.834-3.13,0.102l-0.836-4.072c-0.941-4.381-2.61-4.592-11.688-4.592h-6.161  c-2.404,0-2.503,0.211-2.503,2.82v14.613c0,11.066,0.941,11.172,5.844,11.799l4.382,0.52c0.731,0.73,0.631,2.609-0.205,3.027  c-6.681-0.207-11.379-0.312-15.971-0.312c-4.599,0-9.298,0.105-14.094,0.312c-0.836-0.418-0.941-2.297-0.211-3.027l2.294-0.312  c4.908-0.627,5.85-0.939,5.85-12.006v-38.834c0-11.066-0.941-11.379-5.85-12.109l-1.352-0.209c-0.731-0.73-0.633-2.609,0.21-3.027  c3.651,0.211,8.35,0.314,12.941,0.314H884.37z"></path></g></svg>